<svg width="22" height="19" viewBox="0 0 22 19" fill="none" xmlns="http://www.w3.org/2000/svg">
<path fill-rule="evenodd" clip-rule="evenodd" d="M3.07005 2.46538C3.95182 1.56552 5.14758 1.06001 6.3944 1.06001C7.64121 1.06001 8.83697 1.56552 9.71874 2.46538L11.0964 3.87058L12.4741 2.46538C12.9079 2.00693 13.4267 1.64126 14.0004 1.3897C14.5741 1.13813 15.1911 1.00572 15.8154 1.00018C16.4397 0.994643 17.0589 1.11609 17.6368 1.35744C18.2146 1.59879 18.7396 1.9552 19.1811 2.40589C19.6226 2.85657 19.9717 3.3925 20.2082 3.9824C20.4446 4.57231 20.5635 5.20437 20.5581 5.84171C20.5527 6.47905 20.423 7.10891 20.1766 7.69452C19.9301 8.28014 19.5719 8.8098 19.1228 9.25258L11.0964 17.4474L3.07005 9.25258C2.18856 8.35245 1.69336 7.13177 1.69336 5.85898C1.69336 4.5862 2.18856 3.36552 3.07005 2.46538Z" stroke="white" stroke-width="2" stroke-linejoin="round"/>
</svg>
