<svg width="22" height="21" viewBox="0 0 22 21" fill="none" xmlns="http://www.w3.org/2000/svg">
<path d="M1.69336 0C1.14107 0 0.693359 0.447715 0.693359 1C0.693359 1.55228 1.14107 2 1.69336 2V0ZM3.93911 1L4.90567 0.743565C4.78937 0.305207 4.39263 0 3.93911 0V1ZM7.58845 14.7552L6.62189 15.0117C6.75043 15.4962 7.21781 15.8106 7.71503 15.7472L7.58845 14.7552ZM18.8172 13.3224L18.9438 14.3143C19.3689 14.2601 19.7122 13.941 19.7973 13.521L18.8172 13.3224ZM20.5015 5.01194L21.4816 5.21058C21.5412 4.91651 21.4656 4.61123 21.2757 4.37895C21.0858 4.14667 20.8016 4.01194 20.5015 4.01194V5.01194ZM5.0035 5.01194L4.03694 5.26838L5.0035 5.01194ZM1.69336 2H3.93911V0H1.69336V2ZM7.71503 15.7472L18.9438 14.3143L18.6906 12.3304L7.46188 13.7633L7.71503 15.7472ZM19.7973 13.521L21.4816 5.21058L19.5214 4.81331L17.8371 13.1238L19.7973 13.521ZM2.97255 1.25643L4.03694 5.26838L5.97006 4.75551L4.90567 0.743565L2.97255 1.25643ZM4.03694 5.26838L6.62189 15.0117L8.55502 14.4988L5.97006 4.75551L4.03694 5.26838ZM20.5015 4.01194H5.0035V6.01194H20.5015V4.01194ZM10.0974 18.5073C10.0974 18.803 9.86795 19.0073 9.62805 19.0073V21.0073C11.0112 21.0073 12.0974 19.8684 12.0974 18.5073H10.0974ZM9.62805 19.0073C9.38816 19.0073 9.15867 18.803 9.15867 18.5073H7.15867C7.15867 19.8684 8.24491 21.0073 9.62805 21.0073V19.0073ZM9.15867 18.5073C9.15867 18.2116 9.38816 18.0073 9.62805 18.0073V16.0073C8.24491 16.0073 7.15867 17.1461 7.15867 18.5073H9.15867ZM9.62805 18.0073C9.86795 18.0073 10.0974 18.2116 10.0974 18.5073H12.0974C12.0974 17.1461 11.0112 16.0073 9.62805 16.0073V18.0073ZM17.9342 18.5073C17.9342 18.803 17.7047 19.0073 17.4648 19.0073V21.0073C18.8479 21.0073 19.9342 19.8684 19.9342 18.5073H17.9342ZM17.4648 19.0073C17.2249 19.0073 16.9954 18.803 16.9954 18.5073H14.9954C14.9954 19.8684 16.0816 21.0073 17.4648 21.0073V19.0073ZM16.9954 18.5073C16.9954 18.2116 17.2249 18.0073 17.4648 18.0073V16.0073C16.0816 16.0073 14.9954 17.1461 14.9954 18.5073H16.9954ZM17.4648 18.0073C17.7047 18.0073 17.9342 18.2116 17.9342 18.5073H19.9342C19.9342 17.1461 18.8479 16.0073 17.4648 16.0073V18.0073Z" fill="white"/>
</svg>
