<svg width="19" height="22" viewBox="0 0 19 22" fill="none" xmlns="http://www.w3.org/2000/svg">
<path d="M1.75576 17.1074L0.955948 16.5072H0.955947L1.75576 17.1074ZM2.89501 13.8377L1.89501 13.8256V13.8377H2.89501ZM2.91892 11.8609L3.91892 11.873V11.8609H2.91892ZM17.2285 17.1233L18.0401 16.5391L18.0401 16.5391L17.2285 17.1233ZM16.1321 13.8377L15.1321 13.825V13.8377H16.1321ZM16.156 11.9588L17.156 11.9716V11.9588H16.156ZM2.55558 17.7076C3.22342 16.8178 3.89501 15.4791 3.89501 13.8377H1.89501C1.89501 14.9249 1.44753 15.8521 0.955948 16.5072L2.55558 17.7076ZM3.89493 13.8498L3.91885 11.873L1.91899 11.8488L1.89508 13.8256L3.89493 13.8498ZM18.0401 16.5391C17.5695 15.8852 17.1321 14.9463 17.1321 13.8377H15.1321C15.1321 15.4765 15.7752 16.8158 16.4168 17.7074L18.0401 16.5391ZM17.132 13.8505L17.1559 11.9716L15.1561 11.9461L15.1322 13.825L17.132 13.8505ZM17.156 11.9588C17.156 7.69104 13.7348 4.21053 9.48908 4.21053V6.21053C12.6074 6.21053 15.156 8.77266 15.156 11.9588H17.156ZM16.8295 19.0394C17.5632 19.0394 18.0151 18.5191 18.1938 18.0942C18.3724 17.6695 18.4116 17.0553 18.0401 16.5391L16.4168 17.7074C16.2855 17.525 16.3292 17.3688 16.3502 17.3188C16.3714 17.2685 16.5037 17.0394 16.8295 17.0394V19.0394ZM3.91892 11.8609C3.91892 8.72881 6.42417 6.21053 9.48908 6.21053V4.21053C5.29679 4.21053 1.91892 7.64718 1.91892 11.8609H3.91892ZM2.14962 17.0394C2.48265 17.0394 2.61202 17.2764 2.63007 17.3206C2.64828 17.3653 2.69381 17.5235 2.55558 17.7076L0.955947 16.5072C0.567892 17.0242 0.603836 17.6485 0.778183 18.0759C0.952361 18.503 1.40358 19.0394 2.14962 19.0394V17.0394ZM16.8295 17.0394H2.14962V19.0394H16.8295V17.0394ZM11.6238 18.0395C11.6238 19.0692 10.7227 20 9.48908 20V22C11.718 22 13.6238 20.2799 13.6238 18.0395H11.6238ZM9.48908 20C8.2555 20 7.35438 19.0692 7.35438 18.0395H5.35438C5.35438 20.2799 7.26017 22 9.48908 22V20ZM10.5789 3.10526C10.5789 3.72265 10.084 4.21053 9.48908 4.21053V6.21053C11.2025 6.21053 12.5789 4.81329 12.5789 3.10526H10.5789ZM9.48908 4.21053C8.89414 4.21053 8.39928 3.72265 8.39928 3.10526H6.39928C6.39928 4.81329 7.77569 6.21053 9.48908 6.21053V4.21053ZM8.39928 3.10526C8.39928 2.48788 8.89414 2 9.48908 2V0C7.77569 0 6.39928 1.39724 6.39928 3.10526H8.39928ZM9.48908 2C10.084 2 10.5789 2.48788 10.5789 3.10526H12.5789C12.5789 1.39724 11.2025 0 9.48908 0V2Z" fill="white"/>
</svg>
